<?xml version="1.0" encoding="utf-8"?>
<!-- Generator: Adobe Illustrator 22.0.1, SVG Export Plug-In . SVG Version: 6.00 Build 0)  -->
<svg version="1.1" id="Layer_1" xmlns="http://www.w3.org/2000/svg" xmlns:xlink="http://www.w3.org/1999/xlink" x="0px" y="0px"
	 viewBox="0 0 622.7 196.5" style="enable-background:new 0 0 622.7 196.5;" xml:space="preserve">
<style type="text/css">
	.st0{fill:#FFFFFF;}
</style>
<g>
	<path class="st0" d="M554.2,51.5c-1.9,0-3.6-0.3-5.2-0.7c-1.6-0.5-3-1.2-4.2-2c-1.2-0.8-2.1-1.8-2.7-2.9c-0.6-1.1-0.9-2.2-0.8-3.5
		c0.1-1.2,0.5-2.3,1.2-3.3c0.7-1,1.7-1.9,2.8-2.7c1.2-0.7,2.5-1.3,4-1.7c1.5-0.4,3.1-0.6,4.8-0.6c1.7,0,3.3,0.2,4.8,0.6
		c1.5,0.4,2.8,1,4,1.7c1.2,0.7,2.1,1.6,2.8,2.7c0.7,1,1.1,2.1,1.2,3.3c0.1,1.2-0.2,2.4-0.8,3.5c-0.6,1.1-1.5,2.1-2.7,2.9
		c-1.2,0.8-2.6,1.5-4.2,2C557.8,51.2,556,51.5,554.2,51.5z"/>
</g>
<g>
	<path class="st0" d="M554.2,29c-6.4,0-12.6,0.6-18.5,1.9c-6,1.2-11.7,3.1-17.1,5.4c-5.5,2.4-10.7,5.4-15.4,8.9
		c-4.9,3.6-9.3,7.9-13,12.6c-0.2-1.3-0.4-2.6-0.5-3.9c-0.1-1.3-0.1-2.6,0-3.9c0.1-1.3,0.2-2.6,0.5-3.9c0.2-1.3,0.6-2.5,1-3.8
		c1.8-5.8,5.2-10.9,9.5-15.4c4.1-4.3,9.2-7.9,14.9-10.9c5.5-2.9,11.7-5.1,18.2-6.6C540.1,7.8,547,7,554.2,7V29z"/>
</g>
<g>
	<path class="st0" d="M617.2,42.3c2,6.1,2.1,12.3,0.4,18.3c-1.7,6.3-5.4,12.4-10.8,17.7c-5.6,5.6-13.1,10.3-22,13.7
		c-9.1,3.5-19.6,5.4-30.7,5.4V57.8c7.4,0,14.4-0.9,20.9-2.4c6.4-1.6,12.1-3.8,17-6.5c4.8-2.7,8.7-5.8,11.7-9.2
		c2.9-3.3,4.8-6.9,5.8-10.6c0.8,1,1.6,2,2.4,3c0.8,1,1.5,2.1,2.1,3.2c0.7,1.1,1.2,2.3,1.8,3.4C616.3,39.8,616.8,41.1,617.2,42.3z"/>
</g>
<path class="st0" d="M7.3,185V74.6h79.3v14.8H23.3v32.9h58.5v14.4H23.3v33.1h63.3V185H7.3z"/>
<path class="st0" d="M99.1,74.6H114V185H99.1V74.6z"/>
<path class="st0" d="M196.4,174.8c-7.8,8.1-17.4,12.1-28,12.1c-25.3,0-43.6-18.9-43.6-43.9c0-11.6,4.2-22.5,12-30.6
	c8.4-8.9,18.2-12.9,30.7-12.9c11.3,0,21,4,28.9,12.3v-10.1h15.2V185h-15.2V174.8z M169.2,172.6c14.6,0,27.9-13.2,27.9-28.7
	c0-16.9-13.4-29.8-28.3-29.8c-15.5,0-28.6,12.4-28.6,28.7C140.3,160.2,153.5,172.6,169.2,172.6z"/>
<path class="st0" d="M232.6,115.3h-11.8v-13.7h11.8v-27h14.9v27h11.8v13.7h-11.8V185h-14.9V115.3z"/>
<path class="st0" d="M304.8,172.3c9.9,0,18.5-5,23.3-13.7H345c-7.8,18.6-22,28.6-40.2,28.6c-12.3,0-22.5-4.3-30.7-13
	c-7.9-8.2-12.4-19.7-12.4-30.9c0-11.8,4-22,11.8-30.4c8.4-9.2,18.9-13.7,31.1-13.7c14.6,0,27.8,7,36,19.4c5,7.6,7.1,16.5,7.1,27.9
	c0,0.8,0,1.6,0,2.3h-70.2C279.9,163,291.1,172.3,304.8,172.3z M304.9,113.8c-13,0-23.4,8.2-27,21.6h53.3
	C327.5,121.7,317.8,113.8,304.9,113.8z"/>
<path class="st0" d="M357,185v-83.4h14.1v9.6c5-7.5,11.2-10.9,19.7-11v15.7C376.7,117,372,124,372,138.6V185H357z"/>
<path class="st0" d="M462.8,174.8c-7.8,8.1-17.4,12.1-27.9,12.1c-25.3,0-43.6-18.9-43.6-43.9c0-11.6,4.2-22.5,12-30.6
	c8.4-8.9,18.2-12.9,30.7-12.9c11.3,0,21,4,28.9,12.3v-10.1H478V185h-15.2V174.8z M435.6,172.6c14.6,0,27.9-13.2,27.9-28.7
	c0-16.9-13.4-29.8-28.3-29.8c-15.5,0-28.6,12.4-28.6,28.7C406.8,160.2,420,172.6,435.6,172.6z"/>
<path class="st0" d="M491.5,74.6h14.9V185h-14.9V74.6z"/>
</svg>
